<svg width="684" height="205" viewBox="0 0 684 205" fill="none" xmlns="http://www.w3.org/2000/svg">
<path d="M102.5 102.499L46.9792 102.5L0 55.1924H55.5208L102.5 102.499Z" fill="#191616"/>
<path d="M102.5 102.499L158.021 102.5L205 55.1924H149.479L102.5 102.499Z" fill="#282C2C"/>
<path d="M102.501 102.5L102.5 158.021L149.808 205V149.479L102.501 102.5Z" fill="#191616"/>
<path d="M102.5 102.501L46.9792 102.5L0 149.808H55.5208L102.5 102.501Z" fill="#191616"/>
<path d="M102.501 102.5L102.5 46.9792L149.808 0V55.5208L102.501 102.5Z" fill="#191616"/>
<path d="M102.5 102.501L158.021 102.5L205 149.808H149.479L102.5 102.501Z" fill="#282C2C"/>
<path d="M102.499 102.5L102.5 158.021L55.1924 205V149.479L102.499 102.5Z" fill="#282C2C"/>
<path d="M102.499 102.5L102.5 46.9792L55.1924 0V55.5208L102.499 102.5Z" fill="#282C2C"/>
<path d="M288.296 150H257.192L224 54.96H255.464L272.744 113.928L290.024 54.96H321.488L288.296 150ZM330.702 54.96H394.494V79.152H358.566V90.672H394.494V114.072H358.566V125.808H394.494V150H330.702V54.96ZM461.816 124.08C465.176 124.08 468.416 123.552 471.536 122.496C474.704 121.44 477.152 120.384 478.88 119.328L490.76 142.944C488.456 144.864 484.544 146.808 479.024 148.776C473.504 150.744 467 151.728 459.512 151.728C452.504 151.728 445.88 150.528 439.64 148.128C433.4 145.68 427.856 142.248 423.008 137.832C418.208 133.416 414.44 128.232 411.704 122.28C408.968 116.28 407.6 109.728 407.6 102.624C407.6 95.52 408.968 88.968 411.704 82.968C414.44 76.92 418.208 71.688 423.008 67.272C427.808 62.808 433.328 59.352 439.568 56.904C445.856 54.456 452.504 53.232 459.512 53.232C467 53.232 473.504 54.216 479.024 56.184C484.544 58.152 488.456 60.096 490.76 62.016L478.88 85.632C477.152 84.576 474.704 83.52 471.536 82.464C468.416 81.408 465.176 80.88 461.816 80.88C457.256 80.88 453.44 81.528 450.368 82.824C447.296 84.12 444.824 85.848 442.952 88.008C441.128 90.12 439.808 92.448 438.992 94.992C438.224 97.488 437.84 99.96 437.84 102.408C437.84 104.904 438.224 107.424 438.992 109.968C439.808 112.512 441.128 114.864 442.952 117.024C444.824 119.136 447.296 120.84 450.368 122.136C453.44 123.432 457.256 124.08 461.816 124.08ZM501.966 54.96H544.59C550.35 54.96 555.438 56.184 559.854 58.632C564.27 61.032 567.726 64.488 570.222 69C572.718 73.464 573.966 78.768 573.966 84.912C573.966 91.008 572.958 95.952 570.942 99.744C568.974 103.488 566.598 106.296 563.814 108.168C561.03 110.04 558.462 111.24 556.11 111.768L578.862 150H547.614L528.03 113.928H529.902V150H501.966V54.96ZM529.902 95.064H534.51C537.054 95.064 539.478 94.464 541.782 93.264C544.134 92.064 545.31 89.592 545.31 85.848C545.31 82.104 544.182 79.632 541.926 78.432C539.67 77.232 537.27 76.632 534.726 76.632H529.902V95.064ZM616.927 54.96H644.215L683.383 150H653.647L647.599 133.512H613.687L607.567 150H577.758L616.927 54.96ZM623.047 109.32H638.239L630.751 88.368H630.535L623.047 109.32Z" fill="#282C2C"/>
<path d="M449.333 180.784C450.284 180.784 451.146 180.644 451.921 180.365C452.707 180.086 453.291 179.813 453.673 179.544L455.657 183.481C455.171 183.894 454.339 184.313 453.161 184.736C451.994 185.16 450.604 185.372 448.992 185.372C447.483 185.372 446.068 185.108 444.745 184.581C443.422 184.054 442.255 183.316 441.242 182.365C440.24 181.404 439.449 180.283 438.87 179.001C438.302 177.71 438.018 176.31 438.018 174.801C438.018 173.292 438.302 171.892 438.87 170.6C439.439 169.298 440.224 168.167 441.226 167.206C442.239 166.245 443.407 165.501 444.729 164.974C446.062 164.437 447.483 164.168 448.992 164.168C450.604 164.168 451.994 164.38 453.161 164.803C454.339 165.227 455.171 165.646 455.657 166.059L453.673 169.996C453.291 169.717 452.707 169.443 451.921 169.174C451.146 168.895 450.284 168.756 449.333 168.756C448.279 168.756 447.359 168.921 446.574 169.252C445.789 169.572 445.132 170.017 444.605 170.585C444.078 171.153 443.686 171.794 443.427 172.507C443.169 173.22 443.04 173.969 443.04 174.754C443.04 175.55 443.169 176.31 443.427 177.033C443.686 177.746 444.078 178.387 444.605 178.955C445.132 179.523 445.789 179.973 446.574 180.303C447.359 180.624 448.279 180.784 449.333 180.784ZM458.386 164.54H466.725C467.913 164.54 468.972 164.788 469.902 165.284C470.832 165.78 471.566 166.498 472.103 167.438C472.651 168.368 472.925 169.479 472.925 170.771C472.925 172.063 472.692 173.122 472.227 173.948C471.773 174.765 471.225 175.38 470.584 175.793C469.944 176.196 469.35 176.439 468.802 176.521L473.777 185H468.569L464.136 176.878H463.02V185H458.386V164.54ZM463.02 173.669H465.066C465.893 173.669 466.616 173.468 467.236 173.065C467.856 172.662 468.166 171.949 468.166 170.926C468.166 169.903 467.862 169.195 467.252 168.802C466.642 168.399 465.924 168.198 465.097 168.198H463.02V173.669ZM476.825 164.54H489.891V168.601H481.444V172.77H489.814V176.707H481.444V180.939H489.891V185H476.825V164.54ZM499.443 164.54H504.046L512.122 185H507.177L505.689 180.892H497.815L496.312 185H491.352L499.443 164.54ZM499.365 176.831H504.155L501.783 170.12H501.737L499.365 176.831ZM515.573 168.601H510.691V164.54H525.075V168.601H520.208V185H515.573V168.601ZM527.733 164.54H532.368V185H527.733V164.54ZM547.295 185H542.056L534.771 164.54H539.994L544.675 179.094L549.356 164.54H554.58L547.295 185ZM556.868 164.54H569.934V168.601H561.487V172.77H569.857V176.707H561.487V180.939H569.934V185H556.868V164.54ZM602.587 185H597.023L593.551 170.724H594.388L590.916 185H585.32L580.655 164.54H585.971L588.436 178.893H588.374L592.218 164.54H595.705L599.565 178.893H599.503L601.967 164.54H607.284L602.587 185ZM613.804 174.754C613.804 175.922 614.041 176.981 614.517 177.932C615.002 178.872 615.669 179.621 616.516 180.179C617.374 180.737 618.366 181.017 619.492 181.017C620.618 181.017 621.605 180.737 622.453 180.179C623.31 179.621 623.977 178.872 624.452 177.932C624.938 176.981 625.181 175.922 625.181 174.754C625.181 173.587 624.938 172.533 624.452 171.592C623.977 170.652 623.31 169.903 622.453 169.345C621.605 168.777 620.618 168.492 619.492 168.492C618.366 168.492 617.374 168.777 616.516 169.345C615.669 169.903 615.002 170.652 614.517 171.592C614.041 172.533 613.804 173.587 613.804 174.754ZM608.983 174.754C608.983 173.266 609.247 171.882 609.774 170.6C610.301 169.309 611.039 168.182 611.99 167.221C612.941 166.26 614.057 165.511 615.338 164.974C616.619 164.437 618.004 164.168 619.492 164.168C621.001 164.168 622.391 164.437 623.662 164.974C624.943 165.511 626.054 166.26 626.994 167.221C627.945 168.182 628.678 169.309 629.195 170.6C629.722 171.882 629.986 173.266 629.986 174.754C629.986 176.253 629.732 177.648 629.226 178.939C628.72 180.221 627.996 181.347 627.056 182.318C626.116 183.279 625.005 184.029 623.724 184.566C622.442 185.103 621.032 185.372 619.492 185.372C617.921 185.372 616.49 185.103 615.199 184.566C613.917 184.029 612.812 183.279 611.882 182.318C610.952 181.347 610.233 180.221 609.727 178.939C609.231 177.648 608.983 176.253 608.983 174.754ZM632.549 164.54H640.888C642.076 164.54 643.135 164.788 644.065 165.284C644.995 165.78 645.729 166.498 646.266 167.438C646.814 168.368 647.088 169.479 647.088 170.771C647.088 172.063 646.855 173.122 646.39 173.948C645.936 174.765 645.388 175.38 644.747 175.793C644.107 176.196 643.513 176.439 642.965 176.521L647.94 185H642.732L638.299 176.878H637.183V185H632.549V164.54ZM637.183 173.669H639.229C640.056 173.669 640.779 173.468 641.399 173.065C642.019 172.662 642.329 171.949 642.329 170.926C642.329 169.903 642.025 169.195 641.415 168.802C640.805 168.399 640.087 168.198 639.26 168.198H637.183V173.669ZM659.342 174.429L667.123 185H661.59L655.297 176.056V185H650.662V164.54H655.297V172.91L661.094 164.54H666.317L659.342 174.429ZM676.395 164.168C677.666 164.168 678.777 164.307 679.728 164.586C680.678 164.865 681.443 165.16 682.022 165.47C682.6 165.78 682.952 165.987 683.076 166.09L680.844 169.825C680.678 169.701 680.394 169.521 679.991 169.283C679.599 169.045 679.128 168.833 678.581 168.647C678.043 168.461 677.48 168.368 676.891 168.368C676.096 168.368 675.45 168.513 674.954 168.802C674.468 169.081 674.225 169.5 674.225 170.058C674.225 170.44 674.354 170.786 674.613 171.096C674.881 171.396 675.284 171.685 675.822 171.964C676.369 172.233 677.062 172.528 677.899 172.848C678.663 173.127 679.382 173.458 680.053 173.84C680.725 174.222 681.314 174.677 681.82 175.204C682.337 175.721 682.745 176.32 683.045 177.002C683.344 177.684 683.494 178.459 683.494 179.327C683.494 180.36 683.282 181.259 682.859 182.024C682.435 182.778 681.856 183.403 681.123 183.899C680.399 184.395 679.573 184.762 678.643 185C677.723 185.248 676.767 185.372 675.775 185.372C674.37 185.372 673.109 185.212 671.993 184.891C670.888 184.571 669.994 184.225 669.312 183.853C668.63 183.481 668.222 183.233 668.087 183.109L670.397 179.218C670.521 179.311 670.758 179.461 671.11 179.668C671.471 179.875 671.911 180.092 672.427 180.319C672.944 180.536 673.492 180.722 674.07 180.877C674.659 181.032 675.238 181.109 675.806 181.109C676.757 181.109 677.47 180.929 677.945 180.567C678.421 180.195 678.658 179.709 678.658 179.11C678.658 178.666 678.508 178.268 678.209 177.916C677.909 177.565 677.46 177.234 676.86 176.924C676.261 176.604 675.512 176.268 674.613 175.917C673.714 175.555 672.872 175.116 672.086 174.599C671.311 174.083 670.681 173.437 670.195 172.662C669.71 171.887 669.467 170.926 669.467 169.779C669.467 168.632 669.787 167.64 670.428 166.803C671.079 165.956 671.931 165.305 672.985 164.85C674.05 164.395 675.186 164.168 676.395 164.168Z" fill="#282C2C"/>
</svg>
